<?xml version="1.0" encoding="utf-8"?>
<!-- Generator: Adobe Illustrator 24.1.2, SVG Export Plug-In . SVG Version: 6.00 Build 0)  -->
<svg version="1.1" id="Слой_1" xmlns="http://www.w3.org/2000/svg" xmlns:xlink="http://www.w3.org/1999/xlink" x="0px" y="0px"
	 viewBox="0 0 100 100" style="enable-background:new 0 0 100 100;" xml:space="preserve">
<style type="text/css">
	.st0{display:none;}
	.st1{display:inline;fill:#FFFFFF;}
	.st2{fill-rule:evenodd;clip-rule:evenodd;fill:#FFFFFF;}
</style>
<g class="st0">
	<path class="st1" d="M62.96,39.69c0,1.24-1,2.24-2.24,2.24s-2.24-1.01-2.24-2.24c0-1.24,1.01-2.24,2.24-2.24
		S62.96,38.45,62.96,39.69z M60.17,49.76c0,5.2-4.23,9.43-9.43,9.43c-5.2,0-9.43-4.23-9.43-9.43c0-5.2,4.23-9.43,9.43-9.43
		C55.94,40.33,60.17,44.56,60.17,49.76z M56.78,49.76c0-3.33-2.71-6.04-6.04-6.04c-3.33,0-6.04,2.71-6.04,6.04
		c0,3.33,2.71,6.04,6.04,6.04C54.07,55.8,56.78,53.09,56.78,49.76z M69.82,42.18c0-6.35-5.15-11.5-11.5-11.5H42.63
		c-6.35,0-11.5,5.15-11.5,11.5v15.69c0,6.35,5.15,11.5,11.5,11.5h15.69c6.35,0,11.5-5.15,11.5-11.5V42.18z M66.05,57.7
		c0,4.36-3.54,7.9-7.9,7.9H42.8c-4.36,0-7.9-3.54-7.9-7.9V42.35c0-4.36,3.54-7.9,7.9-7.9h15.35c4.36,0,7.9,3.54,7.9,7.9V57.7z"/>
</g>
<g>
	<path class="st2" d="M45.55,50.18v18.33c0,0.26,0.21,0.48,0.48,0.48h6.81c0.26,0,0.48-0.21,0.48-0.48V49.88h4.94
		c0.25,0,0.45-0.19,0.48-0.44l0.47-5.61c0.02-0.28-0.2-0.52-0.48-0.52h-5.41v-3.98c0-0.93,0.76-1.69,1.69-1.69h3.8
		c0.26,0,0.48-0.21,0.48-0.48v-5.61c0-0.26-0.21-0.48-0.48-0.48h-6.43c-3.77,0-6.83,3.06-6.83,6.83v5.41h-3.4
		c-0.26,0-0.48,0.21-0.48,0.48v5.61c0,0.26,0.21,0.48,0.48,0.48h3.4V50.18z"/>
</g>
</svg>
