<?xml version="1.0" encoding="utf-8"?>
<!-- Generator: Adobe Illustrator 24.1.2, SVG Export Plug-In . SVG Version: 6.00 Build 0)  -->
<svg version="1.1" id="Слой_1" xmlns="http://www.w3.org/2000/svg" xmlns:xlink="http://www.w3.org/1999/xlink" x="0px" y="0px"
	 viewBox="0 0 100 100" style="enable-background:new 0 0 100 100;" xml:space="preserve">
<style type="text/css">
	.st0{display:none;}
	.st1{display:inline;fill:#FFFFFF;}
	.st2{fill:#FFFFFF;}
</style>
<g class="st0">
	<path class="st1" d="M62.96,39.69c0,1.24-1,2.24-2.24,2.24s-2.24-1.01-2.24-2.24c0-1.24,1.01-2.24,2.24-2.24
		S62.96,38.45,62.96,39.69z M60.17,49.76c0,5.2-4.23,9.43-9.43,9.43c-5.2,0-9.43-4.23-9.43-9.43c0-5.2,4.23-9.43,9.43-9.43
		C55.94,40.33,60.17,44.56,60.17,49.76z M56.78,49.76c0-3.33-2.71-6.04-6.04-6.04c-3.33,0-6.04,2.71-6.04,6.04
		c0,3.33,2.71,6.04,6.04,6.04C54.07,55.8,56.78,53.09,56.78,49.76z M69.82,42.18c0-6.35-5.15-11.5-11.5-11.5H42.63
		c-6.35,0-11.5,5.15-11.5,11.5v15.69c0,6.35,5.15,11.5,11.5,11.5h15.69c6.35,0,11.5-5.15,11.5-11.5V42.18z M66.05,57.7
		c0,4.36-3.54,7.9-7.9,7.9H42.8c-4.36,0-7.9-3.54-7.9-7.9V42.35c0-4.36,3.54-7.9,7.9-7.9h15.35c4.36,0,7.9,3.54,7.9,7.9V57.7z"/>
</g>
<g>
	<path class="st2" d="M70.49,45.09c0-4.83-3.92-8.75-8.75-8.75H39.22c-4.83,0-8.75,3.92-8.75,8.75v9.88c0,4.83,3.92,8.75,8.75,8.75
		h22.53c4.83,0,8.75-3.92,8.75-8.75V45.09z M58.11,50.29l-10.07,4.97c-0.39,0.21-1.77-0.07-1.77-0.52V44.54
		c0-0.45,1.39-0.74,1.78-0.51l9.63,5.23C58.07,49.49,58.51,50.07,58.11,50.29z"/>
</g>
</svg>
